<mxfile host="app.diagrams.net" modified="2020-08-26T11:13:07.488Z" agent="5.0 (Windows NT 10.0; Win64; x64) AppleWebKit/537.36 (KHTML, like Gecko) Chrome/83.0.4103.116 Safari/537.36 Edg/83.0.478.61" etag="6D8MxUxwzNchb0vrjW6m" version="13.6.5" type="github">
  <diagram name="Page-1" id="42789a77-a242-8287-6e28-9cd8cfd52e62">
    <mxGraphModel dx="1422" dy="794" grid="0" gridSize="10" guides="1" tooltips="1" connect="1" arrows="1" fold="1" page="1" pageScale="1" pageWidth="1100" pageHeight="850" background="#ffffff" math="0" shadow="0">
      <root>
        <mxCell id="0" />
        <mxCell id="1" parent="0" />
        <mxCell id="KojL5QUjvXXTMYMfU4Bd-1" value="&lt;font size=&quot;1&quot;&gt;&lt;b style=&quot;font-size: 33px&quot;&gt;What skills should I have?&lt;/b&gt;&lt;/font&gt;" style="rounded=1;whiteSpace=wrap;html=1;" vertex="1" parent="1">
          <mxGeometry x="164" y="25" width="629" height="65" as="geometry" />
        </mxCell>
        <mxCell id="KojL5QUjvXXTMYMfU4Bd-28" style="edgeStyle=orthogonalEdgeStyle;rounded=0;orthogonalLoop=1;jettySize=auto;html=1;exitX=0.5;exitY=0;exitDx=0;exitDy=0;" edge="1" parent="1" source="KojL5QUjvXXTMYMfU4Bd-2" target="KojL5QUjvXXTMYMfU4Bd-3">
          <mxGeometry relative="1" as="geometry" />
        </mxCell>
        <mxCell id="KojL5QUjvXXTMYMfU4Bd-2" value="&lt;b&gt;&lt;font style=&quot;font-size: 19px&quot;&gt;Biz Domain Knowledge&lt;/font&gt;&lt;/b&gt;" style="rounded=1;whiteSpace=wrap;html=1;fillColor=#e1d5e7;strokeColor=#9673a6;" vertex="1" parent="1">
          <mxGeometry x="326" y="217" width="156" height="59" as="geometry" />
        </mxCell>
        <mxCell id="KojL5QUjvXXTMYMfU4Bd-3" value="&lt;b&gt;&lt;font style=&quot;font-size: 18px&quot;&gt;Business&lt;/font&gt;&lt;/b&gt;" style="rounded=1;whiteSpace=wrap;html=1;fillColor=#f8cecc;strokeColor=#b85450;" vertex="1" parent="1">
          <mxGeometry x="358" y="123" width="92" height="47" as="geometry" />
        </mxCell>
        <mxCell id="KojL5QUjvXXTMYMfU4Bd-30" style="rounded=0;orthogonalLoop=1;jettySize=auto;html=1;exitX=0;exitY=0.5;exitDx=0;exitDy=0;" edge="1" parent="1" source="KojL5QUjvXXTMYMfU4Bd-4" target="KojL5QUjvXXTMYMfU4Bd-10">
          <mxGeometry relative="1" as="geometry" />
        </mxCell>
        <mxCell id="KojL5QUjvXXTMYMfU4Bd-31" style="edgeStyle=none;rounded=0;orthogonalLoop=1;jettySize=auto;html=1;exitX=0;exitY=0.5;exitDx=0;exitDy=0;entryX=1;entryY=0.5;entryDx=0;entryDy=0;" edge="1" parent="1" source="KojL5QUjvXXTMYMfU4Bd-4" target="KojL5QUjvXXTMYMfU4Bd-11">
          <mxGeometry relative="1" as="geometry" />
        </mxCell>
        <mxCell id="KojL5QUjvXXTMYMfU4Bd-33" style="edgeStyle=none;rounded=0;orthogonalLoop=1;jettySize=auto;html=1;entryX=0.5;entryY=0;entryDx=0;entryDy=0;" edge="1" parent="1" target="KojL5QUjvXXTMYMfU4Bd-15">
          <mxGeometry relative="1" as="geometry">
            <mxPoint x="420" y="491" as="sourcePoint" />
          </mxGeometry>
        </mxCell>
        <mxCell id="KojL5QUjvXXTMYMfU4Bd-34" style="edgeStyle=none;rounded=0;orthogonalLoop=1;jettySize=auto;html=1;exitX=0.5;exitY=1;exitDx=0;exitDy=0;entryX=0.25;entryY=0;entryDx=0;entryDy=0;" edge="1" parent="1" source="KojL5QUjvXXTMYMfU4Bd-4" target="KojL5QUjvXXTMYMfU4Bd-20">
          <mxGeometry relative="1" as="geometry" />
        </mxCell>
        <mxCell id="KojL5QUjvXXTMYMfU4Bd-35" style="edgeStyle=none;rounded=0;orthogonalLoop=1;jettySize=auto;html=1;exitX=0.5;exitY=1;exitDx=0;exitDy=0;" edge="1" parent="1" source="KojL5QUjvXXTMYMfU4Bd-4" target="KojL5QUjvXXTMYMfU4Bd-13">
          <mxGeometry relative="1" as="geometry" />
        </mxCell>
        <mxCell id="KojL5QUjvXXTMYMfU4Bd-36" style="edgeStyle=none;rounded=0;orthogonalLoop=1;jettySize=auto;html=1;entryX=0;entryY=0.5;entryDx=0;entryDy=0;" edge="1" parent="1" target="KojL5QUjvXXTMYMfU4Bd-21">
          <mxGeometry relative="1" as="geometry">
            <mxPoint x="498" y="462" as="sourcePoint" />
          </mxGeometry>
        </mxCell>
        <mxCell id="KojL5QUjvXXTMYMfU4Bd-37" style="edgeStyle=none;rounded=0;orthogonalLoop=1;jettySize=auto;html=1;exitX=1;exitY=0.5;exitDx=0;exitDy=0;entryX=0;entryY=0.75;entryDx=0;entryDy=0;" edge="1" parent="1" source="KojL5QUjvXXTMYMfU4Bd-4" target="KojL5QUjvXXTMYMfU4Bd-24">
          <mxGeometry relative="1" as="geometry" />
        </mxCell>
        <mxCell id="KojL5QUjvXXTMYMfU4Bd-38" style="edgeStyle=none;rounded=0;orthogonalLoop=1;jettySize=auto;html=1;exitX=1;exitY=0.5;exitDx=0;exitDy=0;entryX=0;entryY=0.5;entryDx=0;entryDy=0;" edge="1" parent="1" source="KojL5QUjvXXTMYMfU4Bd-4" target="KojL5QUjvXXTMYMfU4Bd-22">
          <mxGeometry relative="1" as="geometry" />
        </mxCell>
        <mxCell id="KojL5QUjvXXTMYMfU4Bd-4" value="&lt;b&gt;&lt;font style=&quot;font-size: 19px&quot;&gt;Teachnical Skills&lt;/font&gt;&lt;/b&gt;" style="rounded=1;whiteSpace=wrap;html=1;fillColor=#e1d5e7;strokeColor=#9673a6;" vertex="1" parent="1">
          <mxGeometry x="339" y="432" width="161" height="59" as="geometry" />
        </mxCell>
        <mxCell id="KojL5QUjvXXTMYMfU4Bd-29" style="edgeStyle=orthogonalEdgeStyle;rounded=0;orthogonalLoop=1;jettySize=auto;html=1;exitX=0.5;exitY=0;exitDx=0;exitDy=0;entryX=0.5;entryY=1;entryDx=0;entryDy=0;" edge="1" parent="1" source="KojL5QUjvXXTMYMfU4Bd-5" target="KojL5QUjvXXTMYMfU4Bd-7">
          <mxGeometry relative="1" as="geometry" />
        </mxCell>
        <mxCell id="KojL5QUjvXXTMYMfU4Bd-5" value="&lt;b&gt;&lt;font style=&quot;font-size: 19px&quot;&gt;Soft Skills&lt;/font&gt;&lt;/b&gt;" style="rounded=1;whiteSpace=wrap;html=1;fillColor=#e1d5e7;strokeColor=#9673a6;" vertex="1" parent="1">
          <mxGeometry x="132" y="321" width="156" height="59" as="geometry" />
        </mxCell>
        <mxCell id="KojL5QUjvXXTMYMfU4Bd-43" style="edgeStyle=none;rounded=0;orthogonalLoop=1;jettySize=auto;html=1;exitX=1;exitY=0.5;exitDx=0;exitDy=0;entryX=0;entryY=0.5;entryDx=0;entryDy=0;" edge="1" parent="1" source="KojL5QUjvXXTMYMfU4Bd-6" target="KojL5QUjvXXTMYMfU4Bd-9">
          <mxGeometry relative="1" as="geometry" />
        </mxCell>
        <mxCell id="KojL5QUjvXXTMYMfU4Bd-44" style="edgeStyle=none;rounded=0;orthogonalLoop=1;jettySize=auto;html=1;exitX=1;exitY=0.5;exitDx=0;exitDy=0;entryX=0;entryY=0.5;entryDx=0;entryDy=0;" edge="1" parent="1" source="KojL5QUjvXXTMYMfU4Bd-6" target="KojL5QUjvXXTMYMfU4Bd-8">
          <mxGeometry relative="1" as="geometry" />
        </mxCell>
        <mxCell id="KojL5QUjvXXTMYMfU4Bd-6" value="&lt;b&gt;&lt;font style=&quot;font-size: 19px&quot;&gt;Development methodoly&lt;/font&gt;&lt;/b&gt;" style="rounded=1;whiteSpace=wrap;html=1;fillColor=#e1d5e7;strokeColor=#9673a6;" vertex="1" parent="1">
          <mxGeometry x="512" y="294" width="156" height="59" as="geometry" />
        </mxCell>
        <mxCell id="KojL5QUjvXXTMYMfU4Bd-7" value="&lt;b&gt;&lt;font style=&quot;font-size: 18px&quot;&gt;Communication&lt;/font&gt;&lt;/b&gt;" style="rounded=1;whiteSpace=wrap;html=1;fillColor=#f8cecc;strokeColor=#b85450;" vertex="1" parent="1">
          <mxGeometry x="138" y="222" width="144" height="51" as="geometry" />
        </mxCell>
        <mxCell id="KojL5QUjvXXTMYMfU4Bd-8" value="&lt;b&gt;&lt;font style=&quot;font-size: 18px&quot;&gt;Code Clean&amp;nbsp;&lt;/font&gt;&lt;/b&gt;" style="rounded=1;whiteSpace=wrap;html=1;fillColor=#f8cecc;strokeColor=#b85450;" vertex="1" parent="1">
          <mxGeometry x="702.5" y="304" width="144" height="51" as="geometry" />
        </mxCell>
        <mxCell id="KojL5QUjvXXTMYMfU4Bd-9" value="&lt;b&gt;&lt;font style=&quot;font-size: 18px&quot;&gt;TDD&lt;/font&gt;&lt;/b&gt;" style="rounded=1;whiteSpace=wrap;html=1;fillColor=#f8cecc;strokeColor=#b85450;" vertex="1" parent="1">
          <mxGeometry x="702.5" y="243" width="90.5" height="49" as="geometry" />
        </mxCell>
        <mxCell id="KojL5QUjvXXTMYMfU4Bd-10" value="&lt;b&gt;&lt;font style=&quot;font-size: 18px&quot;&gt;Spring&lt;/font&gt;&lt;/b&gt;" style="rounded=1;whiteSpace=wrap;html=1;fillColor=#fff2cc;strokeColor=#d6b656;" vertex="1" parent="1">
          <mxGeometry x="169" y="413" width="92" height="47" as="geometry" />
        </mxCell>
        <mxCell id="KojL5QUjvXXTMYMfU4Bd-42" style="edgeStyle=none;rounded=0;orthogonalLoop=1;jettySize=auto;html=1;exitX=0;exitY=0.5;exitDx=0;exitDy=0;entryX=1;entryY=0.5;entryDx=0;entryDy=0;" edge="1" parent="1" source="KojL5QUjvXXTMYMfU4Bd-11" target="KojL5QUjvXXTMYMfU4Bd-19">
          <mxGeometry relative="1" as="geometry" />
        </mxCell>
        <mxCell id="KojL5QUjvXXTMYMfU4Bd-11" value="&lt;b&gt;&lt;font style=&quot;font-size: 18px&quot;&gt;SpringBoot&lt;/font&gt;&lt;/b&gt;" style="rounded=1;whiteSpace=wrap;html=1;" vertex="1" parent="1">
          <mxGeometry x="158" y="479.5" width="118" height="48" as="geometry" />
        </mxCell>
        <mxCell id="KojL5QUjvXXTMYMfU4Bd-13" value="&lt;b&gt;&lt;font style=&quot;font-size: 18px&quot;&gt;Vue&lt;/font&gt;&lt;/b&gt;" style="rounded=1;whiteSpace=wrap;html=1;fillColor=#f8cecc;strokeColor=#b85450;" vertex="1" parent="1">
          <mxGeometry x="508" y="546" width="90" height="40" as="geometry" />
        </mxCell>
        <mxCell id="KojL5QUjvXXTMYMfU4Bd-14" value="&lt;b&gt;&lt;font style=&quot;font-size: 18px&quot;&gt;MySql&lt;/font&gt;&lt;/b&gt;" style="rounded=1;whiteSpace=wrap;html=1;fillColor=#f8cecc;strokeColor=#b85450;" vertex="1" parent="1">
          <mxGeometry x="203" y="615" width="92" height="47" as="geometry" />
        </mxCell>
        <mxCell id="KojL5QUjvXXTMYMfU4Bd-39" style="edgeStyle=none;rounded=0;orthogonalLoop=1;jettySize=auto;html=1;exitX=0;exitY=0.5;exitDx=0;exitDy=0;" edge="1" parent="1" source="KojL5QUjvXXTMYMfU4Bd-15" target="KojL5QUjvXXTMYMfU4Bd-16">
          <mxGeometry relative="1" as="geometry" />
        </mxCell>
        <mxCell id="KojL5QUjvXXTMYMfU4Bd-40" style="edgeStyle=none;rounded=0;orthogonalLoop=1;jettySize=auto;html=1;exitX=0.5;exitY=1;exitDx=0;exitDy=0;entryX=0.5;entryY=0;entryDx=0;entryDy=0;" edge="1" parent="1" source="KojL5QUjvXXTMYMfU4Bd-15" target="KojL5QUjvXXTMYMfU4Bd-14">
          <mxGeometry relative="1" as="geometry" />
        </mxCell>
        <mxCell id="KojL5QUjvXXTMYMfU4Bd-41" style="edgeStyle=none;rounded=0;orthogonalLoop=1;jettySize=auto;html=1;exitX=0.5;exitY=1;exitDx=0;exitDy=0;entryX=0.5;entryY=0;entryDx=0;entryDy=0;" edge="1" parent="1" source="KojL5QUjvXXTMYMfU4Bd-15" target="KojL5QUjvXXTMYMfU4Bd-18">
          <mxGeometry relative="1" as="geometry" />
        </mxCell>
        <mxCell id="KojL5QUjvXXTMYMfU4Bd-15" value="&lt;b&gt;&lt;font style=&quot;font-size: 18px&quot;&gt;DataBase&lt;/font&gt;&lt;/b&gt;" style="rounded=1;whiteSpace=wrap;html=1;" vertex="1" parent="1">
          <mxGeometry x="286" y="539" width="92" height="47" as="geometry" />
        </mxCell>
        <mxCell id="KojL5QUjvXXTMYMfU4Bd-16" value="&lt;b&gt;&lt;font style=&quot;font-size: 18px&quot;&gt;MongoDB&lt;/font&gt;&lt;/b&gt;" style="rounded=1;whiteSpace=wrap;html=1;fillColor=#f8cecc;strokeColor=#b85450;" vertex="1" parent="1">
          <mxGeometry x="162" y="539" width="92" height="47" as="geometry" />
        </mxCell>
        <mxCell id="KojL5QUjvXXTMYMfU4Bd-18" value="&lt;b&gt;&lt;font style=&quot;font-size: 18px&quot;&gt;Oracle&lt;/font&gt;&lt;/b&gt;" style="rounded=1;whiteSpace=wrap;html=1;fillColor=#fff2cc;strokeColor=#d6b656;" vertex="1" parent="1">
          <mxGeometry x="317" y="620" width="92" height="47" as="geometry" />
        </mxCell>
        <mxCell id="KojL5QUjvXXTMYMfU4Bd-19" value="&lt;span style=&quot;font-size: 18px&quot;&gt;&lt;b&gt;JPA&lt;/b&gt;&lt;/span&gt;" style="rounded=1;whiteSpace=wrap;html=1;fillColor=#f8cecc;strokeColor=#b85450;" vertex="1" parent="1">
          <mxGeometry x="30" y="477" width="92" height="47" as="geometry" />
        </mxCell>
        <mxCell id="KojL5QUjvXXTMYMfU4Bd-20" value="&lt;b&gt;&lt;font style=&quot;font-size: 18px&quot;&gt;Git&lt;/font&gt;&lt;/b&gt;" style="rounded=1;whiteSpace=wrap;html=1;fillColor=#f8cecc;strokeColor=#b85450;" vertex="1" parent="1">
          <mxGeometry x="401" y="539" width="73" height="46" as="geometry" />
        </mxCell>
        <mxCell id="KojL5QUjvXXTMYMfU4Bd-21" value="&lt;b&gt;&lt;font style=&quot;font-size: 18px&quot;&gt;K8s&lt;/font&gt;&lt;/b&gt;" style="rounded=1;whiteSpace=wrap;html=1;fillColor=#fff2cc;strokeColor=#d6b656;" vertex="1" parent="1">
          <mxGeometry x="562" y="493" width="88" height="41" as="geometry" />
        </mxCell>
        <mxCell id="KojL5QUjvXXTMYMfU4Bd-22" value="&lt;b&gt;&lt;font style=&quot;font-size: 18px&quot;&gt;Cloud Native&lt;/font&gt;&lt;/b&gt;" style="rounded=1;whiteSpace=wrap;html=1;fillColor=#fff2cc;strokeColor=#d6b656;" vertex="1" parent="1">
          <mxGeometry x="559" y="388" width="88" height="41" as="geometry" />
        </mxCell>
        <mxCell id="KojL5QUjvXXTMYMfU4Bd-24" value="&lt;b&gt;&lt;font style=&quot;font-size: 18px&quot;&gt;Docker&lt;/font&gt;&lt;/b&gt;" style="rounded=1;whiteSpace=wrap;html=1;fillColor=#fff2cc;strokeColor=#d6b656;" vertex="1" parent="1">
          <mxGeometry x="559" y="439" width="88" height="41" as="geometry" />
        </mxCell>
        <mxCell id="KojL5QUjvXXTMYMfU4Bd-25" value="" style="rounded=1;whiteSpace=wrap;html=1;fillColor=#f8cecc;strokeColor=#b85450;" vertex="1" parent="1">
          <mxGeometry x="951" y="154" width="69" height="32" as="geometry" />
        </mxCell>
        <mxCell id="KojL5QUjvXXTMYMfU4Bd-26" value="" style="rounded=1;whiteSpace=wrap;html=1;fillColor=#fff2cc;strokeColor=#d6b656;" vertex="1" parent="1">
          <mxGeometry x="956" y="207" width="69" height="32" as="geometry" />
        </mxCell>
        <mxCell id="KojL5QUjvXXTMYMfU4Bd-27" value="" style="rounded=1;whiteSpace=wrap;html=1;fillColor=#dae8fc;strokeColor=#6c8ebf;" vertex="1" parent="1">
          <mxGeometry x="954" y="260" width="69" height="32" as="geometry" />
        </mxCell>
        <mxCell id="KojL5QUjvXXTMYMfU4Bd-47" style="edgeStyle=none;rounded=0;orthogonalLoop=1;jettySize=auto;html=1;exitX=0.5;exitY=0;exitDx=0;exitDy=0;entryX=0.5;entryY=1;entryDx=0;entryDy=0;" edge="1" parent="1" source="KojL5QUjvXXTMYMfU4Bd-46" target="KojL5QUjvXXTMYMfU4Bd-2">
          <mxGeometry relative="1" as="geometry" />
        </mxCell>
        <mxCell id="KojL5QUjvXXTMYMfU4Bd-48" style="edgeStyle=none;rounded=0;orthogonalLoop=1;jettySize=auto;html=1;exitX=1;exitY=0.5;exitDx=0;exitDy=0;entryX=0;entryY=0.5;entryDx=0;entryDy=0;" edge="1" parent="1" source="KojL5QUjvXXTMYMfU4Bd-46" target="KojL5QUjvXXTMYMfU4Bd-6">
          <mxGeometry relative="1" as="geometry" />
        </mxCell>
        <mxCell id="KojL5QUjvXXTMYMfU4Bd-49" style="edgeStyle=none;rounded=0;orthogonalLoop=1;jettySize=auto;html=1;exitX=0.5;exitY=1;exitDx=0;exitDy=0;entryX=0.404;entryY=0;entryDx=0;entryDy=0;entryPerimeter=0;" edge="1" parent="1" source="KojL5QUjvXXTMYMfU4Bd-46" target="KojL5QUjvXXTMYMfU4Bd-4">
          <mxGeometry relative="1" as="geometry" />
        </mxCell>
        <mxCell id="KojL5QUjvXXTMYMfU4Bd-50" style="edgeStyle=none;rounded=0;orthogonalLoop=1;jettySize=auto;html=1;exitX=0;exitY=0.5;exitDx=0;exitDy=0;" edge="1" parent="1" source="KojL5QUjvXXTMYMfU4Bd-46" target="KojL5QUjvXXTMYMfU4Bd-5">
          <mxGeometry relative="1" as="geometry" />
        </mxCell>
        <mxCell id="KojL5QUjvXXTMYMfU4Bd-46" value="&lt;b&gt;&lt;font style=&quot;font-size: 19px&quot;&gt;Skills&lt;/font&gt;&lt;/b&gt;" style="rounded=1;whiteSpace=wrap;html=1;" vertex="1" parent="1">
          <mxGeometry x="330.5" y="320" width="147" height="68" as="geometry" />
        </mxCell>
      </root>
    </mxGraphModel>
  </diagram>
</mxfile>
